<svg width="512" height="512" viewBox="0 0 512 512" fill="none" xmlns="http://www.w3.org/2000/svg">
<circle cx="256" cy="256" r="256" fill="url(#paint0_linear_32266_3299)"/>
<path d="M191.709 100.788C212.092 92.3454 233.938 88 256 88H258.1C275.742 88 284.563 88 291.301 91.4333C297.228 94.4533 302.046 99.2722 305.067 105.199C308.5 111.938 308.5 120.758 308.5 138.4V142.6C308.5 160.242 308.5 169.063 305.067 175.801C302.046 181.728 297.228 186.546 291.301 189.567C284.563 193 275.742 193 258.1 193H256C247.727 193 239.535 194.63 231.891 197.796C224.248 200.962 217.303 205.603 211.452 211.452C205.603 217.303 200.962 224.248 197.796 231.891C194.63 239.535 193.001 247.727 193.001 256C193.001 264.273 194.63 272.465 197.796 280.109C200.962 287.752 205.603 294.697 211.452 300.548C217.303 306.397 224.248 311.038 231.891 314.204C239.535 317.37 247.727 318.999 256 318.999H256.273C290.941 318.852 319 290.703 319 256C319 227.005 342.505 203.5 371.5 203.5C400.495 203.5 424 227.005 424 256C424 284.995 400.495 308.5 371.5 308.5C336.706 308.5 308.5 336.706 308.5 371.5V373.6C308.5 391.242 308.5 400.063 305.067 406.801C302.046 412.728 297.228 417.546 291.301 420.567C284.563 424 275.742 424 258.1 424H256C233.938 424 212.092 419.654 191.709 411.212C171.327 402.769 152.806 390.394 137.206 374.794C121.606 359.194 109.231 340.673 100.788 320.291C92.3455 299.908 88 278.062 88 256C88 233.938 92.3454 212.092 100.788 191.709C109.231 171.327 121.606 152.806 137.206 137.206C152.806 121.606 171.327 109.231 191.709 100.788Z" fill="white"/>
<defs>
<linearGradient id="paint0_linear_32266_3299" x1="512" y1="1.52588e-05" x2="-1.52588e-05" y2="512" gradientUnits="userSpaceOnUse">
<stop stop-color="#24CAFF"/>
<stop offset="0.5" stop-color="#2460FF"/>
<stop offset="1" stop-color="#2460FF"/>
</linearGradient>
</defs>
</svg>
